<svg width="160" height="120" viewBox="0 0 160 120" xmlns="http://www.w3.org/2000/svg">
  <defs>
    <linearGradient id="uGradient" x1="0%" y1="0%" x2="0%" y2="100%">
      <stop offset="0%" stop-color="#ffffff" stop-opacity="0.9" />
      <stop offset="40%" stop-color="#b9e7ce" stop-opacity="0.95" />
      <stop offset="100%" stop-color="#00662b" />
    </linearGradient>
  </defs>
  <!-- Sombra exterior -->
  <path
    d="M38 20c0-6.6 5.4-12 12-12h10c6.6 0 12 5.4 12 12v48c0 5.5 4.5 10 10 10s10-4.5 10-10V20c0-6.6 5.4-12 12-12h10c6.6 0 12 5.4 12 12v48C126 85 111 100 94 100H66C49 100 38 85 38 68z"
    fill="#00451f"
  />
  <!-- Cuerpo principal de la U -->
  <path
    d="M44 20c0-5 4-9 9-9h9c5 0 9 4 9 9v48c0 7.7 6.3 14 14 14s14-6.3 14-14V20c0-5 4-9 9-9h9c5 0 9 4 9 9v48C126 88.6 112.6 102 96 102H64C47.4 102 44 88.6 44 68z"
    fill="url(#uGradient)"
  />
  <!-- Contorno interior -->
  <path
    d="M56 22c0-3.3 2.7-6 6-6h4c3.3 0 6 2.7 6 6v44c0 11 8.9 20 20 20 11.1 0 20-9 20-20V22c0-3.3 2.7-6 6-6h4c3.3 0 6 2.7 6 6v44c0 18.2-14.8 33-33 33H83C64.8 99 56 84.2 56 66z"
    fill="none"
    stroke="#ffffff"
    stroke-width="3"
    opacity="0.85"
  />
  <!-- Texto URDECON -->
  <text
    x="80"
    y="114"
    text-anchor="middle"
    font-family="system-ui, -apple-system, BlinkMacSystemFont, 'Segoe UI', sans-serif"
    font-size="18"
    font-weight="700"
    fill="#00662b"
  >
    URDECON
  </text>
</svg>

